<?xml version="1.0" encoding="iso-8859-1"?>
<!DOCTYPE svg PUBLIC "-//W3C//DTD SVG 1.1//EN" "http://www.w3.org/Graphics/SVG/1.1/DTD/svg11.dtd">
<svg fill="currentColor" version="1.1" id="Capa_1" xmlns="http://www.w3.org/2000/svg" xmlns:xlink="http://www.w3.org/1999/xlink"
	 width="24" height="24" viewBox="0 0 39.662 39.661"
	 xml:space="preserve">
<g>
	<path d="M27.3,5.445C26.351,2.248,23.328,0,19.831,0s-6.52,2.247-7.47,5.444C9.951,6.353,8.33,8.597,8.33,11.151
		c0,0.644,0.131,1.253,0.323,1.837c0.006,0.053,0,0.107,0.02,0.158l0.146,0.36c0.008,0.018,0.013,0.035,0.021,0.052l4.58,11.336
		l8.201-6.603c0.43-0.349,1.059-0.278,1.406,0.152c0.346,0.43,0.277,1.06-0.152,1.406l-8.673,6.982l1.428,3.535l6.447-4.689
		l0.009,0.014c0.143-0.079,0.299-0.137,0.475-0.137c0.551,0,1,0.447,1,1c0,0.287-0.125,0.543-0.318,0.726l0.012,0.016l-6.851,4.982
		l2.818,6.979c0.099,0.244,0.342,0.404,0.612,0.404c0.271,0,0.515-0.162,0.613-0.404l10.376-25.699
		c0.009-0.017,0.014-0.035,0.021-0.052l0.146-0.36c0.021-0.051,0.014-0.104,0.021-0.157c0.191-0.584,0.322-1.193,0.322-1.837
		C31.332,8.6,29.71,6.355,27.3,5.445z M28.495,12.277h-8.164v2.835c0,1.104-0.896,2-2,2c-1.032,0-1.872-0.786-1.979-1.79
		c-0.129,0.026-0.261,0.04-0.396,0.04c-1.104,0-2-0.896-2-2v-1.085h-2.789c-0.122-0.356-0.204-0.73-0.204-1.125
		c0-1.65,1.162-3.079,2.826-3.476l0.83-0.199l0.15-0.815c0.439-2.383,2.568-4.113,5.062-4.113s4.623,1.729,5.062,4.113l0.15,0.815
		l0.83,0.198c1.664,0.398,2.826,1.827,2.826,3.477C28.699,11.547,28.617,11.921,28.495,12.277z"/>
</g>
</svg>