<svg xmlns="http://www.w3.org/2000/svg" xmlns:xlink="http://www.w3.org/1999/xlink" viewBox="0 35 550 400">
    <g fill="currentColor" fill-rule="none" stroke="none" stroke-width="1" stroke-linecap="butt" stroke-linejoin="miter"
       stroke-miterlimit="10" stroke-dasharray="" stroke-dashoffset="0" font-family="none" font-weight="none"
       font-size="none" text-anchor="none">
        <g>
            <g fill-rule="evenodd">
                <path d="M216.50546,241.99038c3.12517,0 6.06716,-1.21754 8.278,-3.42364l26.13207,-26.13839c0.30794,0.41216 0.64588,0.82274 1.05173,1.22702c1.98502,1.98818 4.35693,3.03674 6.85675,3.03674c0.33794,0 0.66483,-0.02369 0.97908,-0.05527c-0.43269,1.87605 -0.25425,3.88001 0.57639,5.76396c1.4481,3.28467 4.48957,5.41181 7.74108,5.41181c2.27874,0 4.50695,-1.02488 6.44458,-2.96094c4.87174,-4.8749 6.80464,-6.8078 7.44736,-7.8611l53.93964,-53.93806c4.05846,-4.05846 6.71304,-9.34552 8.11376,-16.16278c1.99133,-7.8311 1.32492,-16.20542 -1.88395,-23.59909c-0.57324,-1.7213 -1.13858,-2.72565 -1.29176,-2.98147l-0.55902,-1.02804c-0.70115,-1.20175 -1.51126,-2.40665 -2.40192,-3.58629c-0.32847,-0.43269 -0.84012,-0.69168 -1.38493,-0.69484h-0.01579c-0.54008,0 -1.04857,0.24477 -1.38019,0.66641c-1.38967,1.77025 -3.53576,2.86935 -5.60289,2.86935c-0.72799,0 -1.42125,-0.13738 -2.06713,-0.40584c-0.55586,-0.23529 -1.18911,-0.16739 -1.68339,0.17687c-0.49428,0.34584 -0.77853,0.9175 -0.75168,1.516c0.15792,3.48996 -1.4481,5.93451 -2.82198,7.36998c-2.15873,2.25979 -5.31232,3.66367 -8.22431,3.66367c-1.37546,0.00158 -3.89423,-0.34584 -5.276,-2.67511c-0.34426,-0.57639 -0.97435,-0.90012 -1.65339,-0.85433c-0.66957,0.05685 -1.24754,0.48638 -1.48915,1.11016c-1.74498,4.44536 -5.39286,5.44339 -6.8757,5.66763c-0.07896,0.00948 -0.19424,0.01421 -0.33636,0.01421c-2.22031,0 -8.32853,-1.12911 -9.9077,-6.27877c-0.15634,-0.50849 -0.52902,-0.91434 -1.02014,-1.11331c-0.48954,-0.20056 -1.04225,-0.16581 -1.5081,0.09159c-2.29927,1.26333 -4.50221,1.90764 -6.54249,1.90921c-3.46785,0.00316 -5.95504,-1.87605 -7.43472,-3.45522c-0.32215,-0.34426 -0.77379,-0.54324 -1.2507,-0.55428c-0.49112,-0.01895 -0.93329,0.18161 -1.26965,0.51797l-39.62291,39.62607c-0.85749,0.52271 -2.58983,2.17293 -7.82636,7.4063c-2.81566,2.81724 -3.67789,6.23613 -2.37191,9.38973c1.36756,3.30046 4.90963,5.60447 8.6112,5.60447c0.67115,0 1.32966,-0.06948 1.96922,-0.2195c-0.24793,2.22979 0.23687,5.07545 2.98621,7.8232c0.38531,0.38216 0.77853,0.71852 1.17964,1.02014l-26.12734,26.1305c-4.56222,4.56222 -4.56222,11.98273 0,16.54968c2.21084,2.2061 5.14967,3.42364 8.27484,3.42364zM211.95588,225.73757l28.17552,-28.17552c0.10896,-0.01421 0.22108,-0.02369 0.32847,-0.03632c-0.19424,1.98818 0.34742,4.27323 2.46824,6.39563c1.62812,1.62812 3.5705,2.48561 5.62026,2.48561c0.2574,0 0.50375,-0.01421 0.74695,-0.03632c-0.01421,0.0837 -0.01895,0.17687 -0.03001,0.2653l-28.20552,28.20394c-1.21596,1.21754 -2.83145,1.88869 -4.55274,1.88869c-1.71656,0 -3.33521,-0.67273 -4.54958,-1.88869c-2.51245,-2.51087 -2.51245,-6.59145 -0.00158,-9.10233zM271.33259,247.83646c3.68104,0 6.67514,-2.9941 6.67514,-6.67514c0,-3.67631 -2.9941,-6.67672 -6.67514,-6.67672c-3.68104,0 -6.6783,2.9941 -6.6783,6.67672c0.00158,3.67946 2.99884,6.67514 6.6783,6.67514z"></path>
            </g>
        </g>
    </g>
</svg>